<svg xmlns="http://www.w3.org/2000/svg" viewBox="0 0 64 64" fill="none">
  <!-- 猫耳朵 -->
  <path d="M16 28L10 8L24 20Z" fill="#A855F7"/>
  <path d="M48 28L54 8L40 20Z" fill="#A855F7"/>
  <path d="M18 24L13 10L23 19Z" fill="#F9A8D4"/>
  <path d="M46 24L51 10L41 19Z" fill="#F9A8D4"/>
  <!-- 猫脸 -->
  <ellipse cx="32" cy="38" rx="20" ry="18" fill="#A855F7"/>
  <!-- 眼睛 -->
  <ellipse cx="24" cy="34" rx="3" ry="3.5" fill="#1E1B4B"/>
  <ellipse cx="40" cy="34" rx="3" ry="3.5" fill="#1E1B4B"/>
  <circle cx="25.5" cy="32.5" r="1.2" fill="white"/>
  <circle cx="41.5" cy="32.5" r="1.2" fill="white"/>
  <!-- 鼻子 -->
  <ellipse cx="32" cy="40" rx="2" ry="1.5" fill="#EC4899"/>
  <!-- 嘴巴 -->
  <path d="M30 42Q32 44 34 42" stroke="#EC4899" stroke-width="1.2" fill="none" stroke-linecap="round"/>
  <!-- 胡须 -->
  <line x1="8" y1="36" x2="20" y2="38" stroke="#D8B4FE" stroke-width="1" stroke-linecap="round"/>
  <line x1="8" y1="40" x2="20" y2="40" stroke="#D8B4FE" stroke-width="1" stroke-linecap="round"/>
  <line x1="56" y1="36" x2="44" y2="38" stroke="#D8B4FE" stroke-width="1" stroke-linecap="round"/>
  <line x1="56" y1="40" x2="44" y2="40" stroke="#D8B4FE" stroke-width="1" stroke-linecap="round"/>
</svg>
